<svg width="154" height="263" viewBox="0 0 154 263" fill="none" xmlns="http://www.w3.org/2000/svg">
<path d="M5.91382 134.852V165.601C5.91382 179.126 16.9641 190.188 30.4742 190.188H57.5581C71.0682 190.188 82.1185 179.126 82.1185 165.601V134.852H5.91382Z" fill="#ECC742"/>
<path d="M79.2254 154.118C76.6381 154.118 75.2999 153.289 74.1145 152.549C73.0694 151.898 72.241 151.388 70.4311 151.388C68.6213 151.388 67.7928 151.898 66.7477 152.549C65.5624 153.289 64.2241 154.118 61.6368 154.118C59.0495 154.118 57.7112 153.289 56.5259 152.549C55.4808 151.898 54.6523 151.388 52.8425 151.388C51.0327 151.388 50.2042 151.898 49.1591 152.549C47.9738 153.289 46.6355 154.118 44.0482 154.118C41.4609 154.118 40.1226 153.289 38.9373 152.549C37.8922 151.898 37.0637 151.388 35.2539 151.388C33.444 151.388 32.6156 151.898 31.5705 152.549C30.3851 153.289 29.0469 154.118 26.4596 154.118C23.8722 154.118 22.534 153.289 21.3487 152.549C20.3035 151.898 19.4751 151.388 17.6652 151.388C15.8554 151.388 15.0269 151.898 13.9818 152.549C12.7965 153.289 11.4582 154.118 8.87092 154.118C6.28361 154.118 4.94535 153.289 3.76003 152.549C2.7149 151.898 1.8992 151.388 0.0893555 151.388V148.67C2.67667 148.67 4.01493 149.499 5.20025 150.239C6.24538 150.89 7.06108 151.4 8.87092 151.4C10.6808 151.4 11.5092 150.89 12.5543 150.239C13.7397 149.499 15.0779 148.67 17.6652 148.67C20.2526 148.67 21.5908 149.499 22.7761 150.239C23.8213 150.89 24.6497 151.4 26.4596 151.4C28.2694 151.4 29.0978 150.89 30.143 150.239C31.3283 149.499 32.6666 148.67 35.2539 148.67C37.8412 148.67 39.1794 149.499 40.3648 150.239C41.4099 150.89 42.2383 151.4 44.0482 151.4C45.858 151.4 46.6865 150.89 47.7316 150.239C48.9169 149.499 50.2552 148.67 52.8425 148.67C55.4298 148.67 56.7681 149.499 57.9534 150.239C58.9985 150.89 59.827 151.4 61.6368 151.4C63.4467 151.4 64.2751 150.89 65.3202 150.239C66.5056 149.499 67.8438 148.67 70.4311 148.67C73.0184 148.67 74.3567 149.499 75.542 150.239C76.5871 150.89 77.4156 151.4 79.2254 151.4C81.0353 151.4 81.8637 150.89 82.9089 150.239C84.0942 149.499 85.4324 148.67 88.0198 148.67V151.388C86.2099 151.388 85.3815 151.898 84.3363 152.549C83.151 153.289 81.8128 154.118 79.2254 154.118Z" fill="white"/>
<path d="M79.2254 167.732C76.6381 167.732 75.2999 166.903 74.1145 166.163C73.0694 165.512 72.241 165.002 70.4311 165.002C68.6213 165.002 67.7928 165.512 66.7477 166.163C65.5624 166.903 64.2241 167.732 61.6368 167.732C59.0495 167.732 57.7112 166.903 56.5259 166.163C55.4808 165.512 54.6523 165.002 52.8425 165.002C51.0327 165.002 50.2042 165.512 49.1591 166.163C47.9738 166.903 46.6355 167.732 44.0482 167.732C41.4609 167.732 40.1226 166.903 38.9373 166.163C37.8922 165.512 37.0637 165.002 35.2539 165.002C33.444 165.002 32.6156 165.512 31.5705 166.163C30.3851 166.903 29.0469 167.732 26.4596 167.732C23.8722 167.732 22.534 166.903 21.3487 166.163C20.3035 165.512 19.4751 165.002 17.6652 165.002C15.8554 165.002 15.0269 165.512 13.9818 166.163C12.7965 166.903 11.4582 167.732 8.87092 167.732C6.28361 167.732 4.94535 166.903 3.76003 166.163C2.7149 165.512 1.8992 165.002 0.0893555 165.002V162.284C2.67667 162.284 4.01493 163.113 5.20025 163.853C6.24538 164.504 7.06108 165.014 8.87092 165.014C10.6808 165.014 11.5092 164.504 12.5543 163.853C13.7397 163.113 15.0779 162.284 17.6652 162.284C20.2526 162.284 21.5908 163.113 22.7761 163.853C23.8213 164.504 24.6497 165.014 26.4596 165.014C28.2694 165.014 29.0978 164.504 30.143 163.853C31.3283 163.113 32.6666 162.284 35.2539 162.284C37.8412 162.284 39.1794 163.113 40.3648 163.853C41.4099 164.504 42.2383 165.014 44.0482 165.014C45.858 165.014 46.6865 164.504 47.7316 163.853C48.9169 163.113 50.2552 162.284 52.8425 162.284C55.4298 162.284 56.7681 163.113 57.9534 163.853C58.9985 164.504 59.827 165.014 61.6368 165.014C63.4467 165.014 64.2751 164.504 65.3202 163.853C66.5056 163.113 67.8438 162.284 70.4311 162.284C73.0184 162.284 74.3567 163.113 75.542 163.853C76.5871 164.504 77.4156 165.014 79.2254 165.014C81.0353 165.014 81.8637 164.504 82.9089 163.853C84.0942 163.113 85.4324 162.284 88.0198 162.284V165.002C86.2099 165.002 85.3815 165.512 84.3363 166.163C83.151 166.903 81.8128 167.732 79.2254 167.732Z" fill="white"/>
<path opacity="0.1" d="M64.7085 134.852V165.601C64.7085 179.126 53.6583 190.188 40.1482 190.188H57.5711C71.0812 190.188 82.1315 179.126 82.1315 165.601V134.852H64.7085Z" fill="#482C80"/>
<path d="M88.0196 130.233H0V139.458H88.0196V130.233Z" fill="#D4A000"/>
<path d="M83.368 149.792C82.1445 145.595 80.9337 141.895 79.7101 137.71C76.7787 127.63 73.8472 117.55 70.9158 107.483C67.3471 95.222 63.7911 82.9733 60.2224 70.7119C57.1508 60.1601 54.0919 49.6211 51.0202 39.0694C50.0134 35.5862 48.9937 32.1157 47.9869 28.6325C47.5153 26.9994 47.1457 25.2386 46.5466 23.6692C46.5211 23.5927 46.5084 23.5161 46.4829 23.4523C46.4829 23.4268 46.4701 23.4141 46.4574 23.4013C46.4319 23.3247 46.4064 23.261 46.3682 23.2099C46.3554 23.1844 46.3427 23.1589 46.3172 23.1461C46.279 23.0951 46.2407 23.0568 46.2025 23.0185C45.9858 22.8271 45.7054 22.7761 45.4633 22.8782C45.2338 22.9547 45.0554 23.1334 44.9662 23.4141C44.9534 23.4268 44.9534 23.4396 44.9407 23.4651C43.5769 27.6628 42.2132 31.8478 40.8494 36.0455C37.5739 46.1124 34.2983 56.1793 31.0227 66.2589C27.0844 78.38 23.1334 90.5011 19.195 102.622C15.7665 113.161 12.338 123.687 8.92225 134.226C7.78791 137.697 6.66631 141.18 5.53197 144.651C5.02216 146.233 4.2192 147.942 3.92605 149.601C3.91331 149.678 3.87507 149.754 3.84958 149.818C3.84958 149.831 3.84958 149.831 3.84958 149.843C3.82409 149.92 3.81135 150.022 3.82409 150.137C3.82409 150.162 3.83684 150.188 3.83684 150.213C3.86233 150.367 3.90056 150.52 4.00253 150.647V150.66C10.6174 162.233 17.245 173.792 23.8598 185.365C24.7775 186.985 25.7079 188.593 26.6256 190.213C26.906 190.698 27.7472 190.762 28.0021 190.213C33.3806 178.602 38.7719 166.979 44.1505 155.368C44.6603 154.284 45.1574 153.186 45.6672 152.102C50.1281 163.1 54.5762 174.098 59.0371 185.097C59.6999 186.743 60.3754 188.389 61.0381 190.035C61.2675 190.609 62.147 190.889 62.4911 190.226C68.4687 178.666 74.459 167.106 80.4366 155.547C81.2523 153.977 82.0553 152.421 82.871 150.851C83.2406 150.711 83.521 150.328 83.368 149.792ZM48.6114 36.5048C51.5428 46.5845 54.4743 56.6641 57.4057 66.731C60.9744 78.9925 64.5304 91.2412 68.0991 103.503C71.1707 114.054 74.2296 124.593 77.3012 135.145C78.3081 138.628 79.3278 142.099 80.3346 145.582C80.5895 146.462 81.1758 148.185 81.5582 149.308C73.0953 149.308 64.6323 149.308 56.1694 149.308C52.9575 149.308 49.7457 149.308 46.5339 149.308C46.5339 145.378 46.5339 141.461 46.5339 137.531C46.5339 127.464 46.5339 117.384 46.5339 107.318C46.5339 95.1837 46.5339 83.0499 46.5339 70.916C46.5339 60.3643 46.5339 49.8125 46.5339 39.2608C46.5339 35.9434 46.5339 32.6133 46.5339 29.296C47.2094 31.6947 47.9104 34.0934 48.6114 36.5048ZM9.49579 137.684C12.7714 127.617 16.0469 117.55 19.3225 107.471C23.2608 95.3496 27.2119 83.2285 31.1502 71.1074C34.5787 60.5684 37.9945 50.0422 41.423 39.5032C42.5573 36.0328 43.6789 32.5495 44.8132 29.0791C44.8515 28.9642 44.8897 28.8367 44.928 28.7218C44.928 31.2098 44.928 33.6851 44.928 36.1731C44.928 46.24 44.928 56.3196 44.928 66.3865C44.928 78.5204 44.928 90.6542 44.928 102.788C44.928 113.34 44.928 123.892 44.928 134.443C44.928 137.901 44.928 141.371 44.928 144.829C44.928 146.271 44.8005 147.84 44.9025 149.308C34.6807 149.308 24.4589 149.308 14.2371 149.308C11.3949 149.308 8.55263 149.308 5.72315 149.308C6.9722 145.442 8.23399 141.563 9.49579 137.684ZM28.8815 184.548C28.3335 185.722 27.7854 186.896 27.2501 188.082C20.8902 176.956 14.5175 165.831 8.15752 154.705C7.43104 153.442 6.70455 152.166 5.97806 150.902C14.3135 150.902 22.649 150.902 30.9845 150.902C35.4836 150.902 39.9828 150.902 44.4819 150.902C39.2818 162.118 34.0816 173.333 28.8815 184.548ZM63.6254 184.548C63.0391 185.671 62.4656 186.794 61.8793 187.916C57.4057 176.893 52.9448 165.856 48.4712 154.832C47.9359 153.531 47.4133 152.217 46.878 150.915C55.5449 150.915 64.2117 150.915 72.8786 150.915C75.5934 150.915 78.3081 150.915 81.0229 150.915C75.2492 162.118 69.4373 173.333 63.6254 184.548Z" fill="#6D3E1D"/>
<path d="M7.25256 149.997C7.25256 151.298 6.19469 152.344 4.90741 152.344C3.60738 152.344 2.56226 151.285 2.56226 149.997C2.56226 148.695 3.62012 147.649 4.90741 147.649C6.20744 147.636 7.25256 148.695 7.25256 149.997Z" fill="#6D3E1D"/>
<path d="M48.0253 149.997C48.0253 151.298 46.9674 152.344 45.6801 152.344C44.3801 152.344 43.335 151.285 43.335 149.997C43.335 148.695 44.3928 147.649 45.6801 147.649C46.9674 147.636 48.0253 148.695 48.0253 149.997Z" fill="#6D3E1D"/>
<path d="M84.7318 149.997C84.7318 151.298 83.6739 152.344 82.3866 152.344C81.0994 152.344 80.0415 151.285 80.0415 149.997C80.0415 148.695 81.0994 147.649 82.3866 147.649C83.6739 147.649 84.7318 148.695 84.7318 149.997Z" fill="#6D3E1D"/>
<path d="M29.672 189.818C29.672 191.119 28.6141 192.165 27.3268 192.165C26.0396 192.165 24.9817 191.106 24.9817 189.818C24.9817 188.516 26.0396 187.47 27.3268 187.47C28.6141 187.47 29.672 188.516 29.672 189.818Z" fill="#6D3E1D"/>
<path d="M64.0209 189.818C64.0209 191.119 62.963 192.165 61.6757 192.165C60.3884 192.165 59.3306 191.106 59.3306 189.818C59.3306 188.516 60.3884 187.47 61.6757 187.47C62.963 187.47 64.0209 188.516 64.0209 189.818Z" fill="#6D3E1D"/>
<path d="M45.8961 26.5911C48.0712 26.5911 49.8344 24.826 49.8344 22.6486C49.8344 20.4712 48.0712 18.7061 45.8961 18.7061C43.721 18.7061 41.9578 20.4712 41.9578 22.6486C41.9578 24.826 43.721 26.5911 45.8961 26.5911Z" fill="#6D3E1D"/>
<path d="M46.6994 22.6486C46.6994 16.2563 46.6994 9.87682 46.6994 3.48453C46.6994 2.57864 46.6994 1.67275 46.6994 0.779612C46.6994 -0.241112 45.1062 -0.253871 45.1062 0.779612C45.1062 7.1719 45.1062 13.5514 45.1062 19.9437C45.1062 20.8496 45.1062 21.7555 45.1062 22.6486C45.1062 23.6693 46.6994 23.6821 46.6994 22.6486Z" fill="#6D3E1D"/>
<path d="M94.0214 241.067C102.282 234.794 105.913 225.662 102.13 220.671C98.3482 215.68 88.5855 216.72 80.3249 222.993C72.0642 229.267 68.4337 238.398 72.2159 243.389C75.9981 248.38 85.7607 247.34 94.0214 241.067Z" fill="#8AC27C"/>
<path d="M98.7256 251.724C98.2923 245.243 102.766 239.667 105.009 239.514C107.418 239.348 112.427 244.299 112.86 250.78C113.294 257.262 110.477 262.723 106.577 262.991C102.664 263.246 99.159 258.206 98.7256 251.724Z" fill="#8AC27C"/>
<path d="M115.677 227.202C113.064 219.789 116.455 211.827 119.029 210.908C121.795 209.926 129.238 214.06 131.864 221.473C134.477 228.886 132.985 236.184 128.512 237.766C124.038 239.348 118.29 234.615 115.677 227.202Z" fill="#8AC27C"/>
<path d="M147.277 208.691C150.758 205.475 149.261 198.183 143.934 192.403C138.606 186.624 131.465 184.546 127.983 187.763C124.502 190.979 125.999 198.271 131.326 204.05C136.654 209.83 143.795 211.908 147.277 208.691Z" fill="#8AC27C"/>
<path d="M102.46 193.173C106.704 189.256 113.052 189.244 114.403 190.711C115.856 192.293 115.244 198.519 111 202.436C106.755 206.353 101.415 207.451 99.0572 204.899C96.6993 202.334 98.216 197.09 102.46 193.173Z" fill="#8AC27C"/>
<path d="M116.926 83.3434C110.579 84.0834 104.882 79.9494 104.627 77.7421C104.346 75.3689 108.96 70.2015 115.308 69.4615C121.655 68.7215 127.161 71.2223 127.607 75.0627C128.053 78.8904 123.273 82.6033 116.926 83.3434Z" fill="#8AC27C"/>
<path d="M97.0177 103.12C97.5658 98.9986 101.083 96.0768 102.511 96.2682C104.04 96.4723 106.551 100.211 106.003 104.319C105.455 108.44 102.995 111.502 100.51 111.171C98.0373 110.852 96.4697 107.241 97.0177 103.12Z" fill="#8AC27C"/>
<path d="M142.047 112.823C143.42 109.412 139.955 104.799 134.308 102.522C128.66 100.244 122.969 101.163 121.596 104.575C120.223 107.986 123.688 112.598 129.335 114.876C134.983 117.154 140.674 116.235 142.047 112.823Z" fill="#8AC27C"/>
<path d="M124.917 132.797C122.101 129.748 122.101 125.168 123.159 124.198C124.293 123.152 128.766 123.598 131.583 126.648C134.4 129.697 135.19 133.55 133.342 135.247C131.507 136.957 127.734 135.86 124.917 132.797Z" fill="#8AC27C"/>
<path d="M96.1255 130.96C98.3304 127.439 102.74 126.239 103.964 127.005C105.277 127.821 106.016 132.274 103.811 135.783C101.606 139.305 98.101 141.078 95.9726 139.738C93.8441 138.411 93.9205 134.482 96.1255 130.96Z" fill="#8AC27C"/>
<path d="M126.944 160.944C121.298 158.66 118.417 152.612 119.208 150.647C120.062 148.542 126.269 146.322 131.915 148.593C137.561 150.877 141.028 155.483 139.651 158.89C138.275 162.309 132.59 163.228 126.944 160.944Z" fill="#8AC27C"/>
<path d="M100.064 170.717C101.772 164.797 107.571 161.276 109.636 161.863C111.841 162.501 114.708 168.536 113.001 174.456C111.293 180.376 107.01 184.344 103.429 183.311C99.8601 182.29 98.3561 176.65 100.064 170.717Z" fill="#8AC27C"/>
<path d="M81.0862 182.558C83.2656 175.004 90.6707 170.513 93.2835 171.266C96.1002 172.083 99.7582 179.776 97.566 187.33C95.3865 194.883 89.9187 199.936 85.3686 198.621C80.8185 197.307 78.9067 190.111 81.0862 182.558Z" fill="#8AC27C"/>
<path d="M102.901 164.312C105.486 162.313 104.894 157.212 101.579 152.919C98.2649 148.626 93.4832 146.767 90.899 148.766C88.3148 150.765 88.9068 155.866 92.2212 160.159C95.5356 164.452 100.317 166.312 102.901 164.312Z" fill="#8AC27C"/>
<path d="M96.1513 122.718C92.0982 121.812 89.4854 118.061 89.8041 116.657C90.1354 115.152 94.0738 112.957 98.1268 113.863C102.18 114.769 105.022 117.486 104.474 119.923C103.926 122.373 100.204 123.624 96.1513 122.718Z" fill="#8AC27C"/>
<path d="M91.0018 100.415C87.4713 103.669 82.182 103.681 81.0604 102.456C79.8496 101.142 80.3594 95.962 83.8899 92.6957C87.4203 89.4422 91.8685 88.5235 93.8313 90.6543C95.8068 92.785 94.5323 97.1486 91.0018 100.415Z" fill="#8AC27C"/>
<path d="M71.7693 119.426C67.2064 119.005 63.8161 115.266 63.9563 113.671C64.1093 111.962 68.1113 109.014 72.6742 109.435C77.237 109.857 80.742 112.421 80.4871 115.19C80.2449 117.946 76.3321 119.834 71.7693 119.426Z" fill="#8AC27C"/>
<path d="M67.7928 97.6971C63.7015 99.7641 58.8455 98.3861 58.119 96.9571C57.3543 95.426 59.1896 90.8072 63.2809 88.7403C67.3722 86.6733 71.7056 87.005 72.9546 89.4803C74.2037 91.9556 71.884 95.6302 67.7928 97.6971Z" fill="#8AC27C"/>
<path d="M26.2427 101.563C30.5889 104.077 32.2458 109.359 31.3791 110.877C30.4487 112.498 25.1083 113.595 20.7494 111.082C16.3905 108.568 14.0963 104.396 15.613 101.767C17.1297 99.1391 21.8838 99.0498 26.2427 101.563Z" fill="#8AC27C"/>
<path d="M88.937 64.881C84.731 69.6911 77.7338 70.4567 76.0642 69.0021C74.2671 67.4328 74.2161 60.5046 78.4221 55.6817C82.6281 50.8715 88.389 49.0215 91.2949 51.5605C94.2009 54.1123 93.143 60.0708 88.937 64.881Z" fill="#8AC27C"/>
<path d="M19.8956 76.5555C24.6242 79.2859 26.4213 85.0275 25.4781 86.6734C24.4585 88.4342 18.6593 89.6335 13.9308 86.8903C9.20224 84.1599 6.70415 79.6304 8.3483 76.7724C9.99246 73.9144 15.1671 73.8123 19.8956 76.5555Z" fill="#8AC27C"/>
<path d="M52.6383 80.3195C48.2538 83.573 42.2763 82.9478 41.1419 81.4295C39.9311 79.7963 41.1419 73.991 45.5263 70.7374C49.9107 67.4839 55.0471 66.9863 57.0227 69.6274C58.9855 72.2813 57.0227 77.0659 52.6383 80.3195Z" fill="#8AC27C"/>
<path d="M44.9655 63.9751C41.0272 69.5125 33.7113 71.0691 31.7868 69.7039C29.722 68.2366 28.9318 60.9001 32.8701 55.3627C36.8084 49.8253 42.7095 47.2607 46.0488 49.6339C49.3881 52.0071 48.9038 58.4249 44.9655 63.9751Z" fill="#8AC27C"/>
<path d="M47.961 74.6798C42.455 77.7547 38.3 83.777 36.4136 89.6589C35.3558 92.9635 34.9607 96.4467 35.0626 99.9044C35.1009 101.002 36.796 101.002 36.7578 99.9044C36.4901 91.1135 40.1098 82.4628 47.2727 77.1806C47.7698 76.8106 48.2796 76.4533 48.8149 76.1471C49.7836 75.6112 48.9169 74.1439 47.961 74.6798Z" fill="#72A265"/>
<path d="M17.219 82.4502C23.426 85.4613 28.7918 91.0753 32.2076 96.97C34.0557 100.147 35.3685 103.579 36.1969 107.177C36.4391 108.249 38.0832 107.79 37.8411 106.731C35.5214 96.5617 28.9448 87.7069 20.1505 82.1822C19.475 81.7612 18.7995 81.3401 18.0857 80.9956C17.0916 80.5108 16.2249 81.9781 17.219 82.4502Z" fill="#72A265"/>
<path d="M22.9799 106.463C27.9251 107.649 32.1948 112.077 34.2213 116.683C35.4831 119.566 36.0439 122.705 36.1713 125.844C36.2223 126.941 37.9175 126.941 37.8665 125.844C37.6498 120.523 36.1841 115.279 32.7683 111.107C30.7673 108.645 28.1417 106.692 25.2103 105.455C24.624 105.212 24.0377 104.97 23.4132 104.817C22.3681 104.562 21.9092 106.208 22.9799 106.463Z" fill="#72A265"/>
<path d="M88.0963 233.581C95.7563 228.235 103.212 222.174 109.572 215.323C111.803 212.924 113.906 210.372 115.563 207.553C116.111 206.608 114.645 205.754 114.097 206.698C111.063 211.891 106.564 216.229 102.129 220.222C98.2034 223.757 94.0866 227.074 89.8552 230.225C88.9885 230.863 88.1218 231.501 87.2423 232.114C86.3374 232.726 87.1914 234.206 88.0963 233.581Z" fill="#72A265"/>
<path d="M125.809 228.886C123.961 225.249 122.547 221.345 121.412 217.428C119.386 210.462 118.124 202.628 120.711 195.636C121.094 194.602 119.449 194.168 119.067 195.189C116.442 202.309 117.64 210.36 119.653 217.479C120.839 221.664 122.355 225.862 124.331 229.741C124.841 230.723 126.306 229.868 125.809 228.886Z" fill="#72A265"/>
<path d="M106.055 198.902C112.313 194.794 117.87 188.465 120.584 181.486C121.782 178.398 122.356 175.094 122.19 171.789C122.139 170.705 120.431 170.692 120.495 171.789C120.839 178.819 117.576 185.25 113.039 190.417C110.745 193.02 108.119 195.534 105.201 197.448C104.296 198.034 105.137 199.502 106.055 198.902Z" fill="#72A265"/>
<path d="M140.327 202.066C137.854 200.51 135.726 198.213 133.852 196.006C128.69 189.907 125.236 182.532 123.095 174.877C122.802 173.818 121.158 174.277 121.451 175.323C124.268 185.403 129.468 195.585 137.739 202.258C138.288 202.704 138.848 203.151 139.447 203.534C140.403 204.121 141.257 202.653 140.327 202.066Z" fill="#72A265"/>
<path d="M106.36 177.275C110.86 168.663 112.771 157.703 110.337 148.249C110.069 147.19 108.425 147.636 108.693 148.695C111 157.69 109.177 168.204 104.895 176.408C104.385 177.378 105.851 178.245 106.36 177.275Z" fill="#72A265"/>
<path d="M134.005 156.185C131.303 155.381 128.665 154.22 126.166 152.944C121.234 150.43 116.378 147.087 113.217 142.443C111.267 139.585 110.133 136.319 110.056 132.848C110.031 131.751 108.336 131.751 108.361 132.848C108.629 145.02 120.227 152.689 130.411 156.708C131.443 157.116 132.501 157.512 133.559 157.831C134.604 158.137 135.063 156.491 134.005 156.185Z" fill="#72A265"/>
<path d="M98.6367 134.979C100.765 133.129 102.55 130.781 104.168 128.485C108.298 122.616 111.204 115.943 113.039 109.027C113.319 107.968 111.675 107.522 111.395 108.581C109.585 115.368 106.743 121.876 102.69 127.643C101.16 129.824 99.4525 132.045 97.4259 133.793C96.6102 134.494 97.8083 135.694 98.6367 134.979Z" fill="#72A265"/>
<path d="M129.939 130.998C127.161 128.74 124.79 125.856 122.687 122.986C117.372 115.751 113.689 107.471 111.637 98.7307C111.382 97.6589 109.751 98.1183 109.993 99.1773C112.07 108.032 115.817 116.491 121.221 123.828C123.414 126.813 125.848 129.837 128.741 132.185C129.582 132.887 130.793 131.687 129.939 130.998Z" fill="#72A265"/>
<path d="M102.588 104.523C103.008 101.193 102.855 97.7227 102.448 94.4053C101.645 88.0641 99.4907 81.8249 95.0935 77.0658C94.3543 76.2619 93.1562 77.4613 93.8954 78.2651C100.102 85.0019 102.027 95.5919 100.893 104.51C100.752 105.608 102.448 105.595 102.588 104.523Z" fill="#72A265"/>
<path d="M132.157 107.981C125.223 105.467 118.392 101.41 113.001 96.3957C110.655 94.2139 108.578 91.7642 106.985 88.97C106.437 88.0131 104.971 88.8807 105.519 89.8248C110.553 98.6669 120.023 104.613 129.124 108.568C129.977 108.938 130.831 109.308 131.698 109.614C132.73 109.997 133.177 108.351 132.157 107.981Z" fill="#72A265"/>
<path d="M86.4773 74.8458C90.7852 76.4406 95.2843 77.6272 99.7962 78.4693C105.965 79.6304 113.956 80.7787 119.526 77.0658C120.431 76.4662 119.577 74.9861 118.672 75.5985C113.23 79.2349 105.149 77.8314 99.1589 76.6193C95.0294 75.7772 90.8872 74.6671 86.9361 73.2126C85.9037 72.8298 85.4576 74.4757 86.4773 74.8458Z" fill="#72A265"/>
<path d="M82.4243 59.4328C82.2459 60.5684 81.787 61.3467 81.2007 62.3291C79.5184 65.1871 76.9948 67.5348 74.3437 69.4869C71.7947 71.3625 69.0289 72.9191 66.1867 74.2971C65.2053 74.7692 66.0592 76.2365 67.0406 75.7644C71.5907 73.5571 76.0516 70.8394 79.5821 67.1648C81.3027 65.3785 82.8449 63.3243 83.7243 60.9894C83.8645 60.6322 84.0047 60.2494 84.0557 59.8666C84.2214 58.8076 82.59 58.3483 82.4243 59.4328Z" fill="#72A265"/>
<path d="M66.1867 91.5473C63.6886 92.6446 61.3307 94.1374 59.1003 95.694C54.3717 98.9858 50.0893 103.03 46.9921 107.917C44.9656 111.12 43.5127 114.667 42.8117 118.392C42.6077 119.464 44.2519 119.923 44.4558 118.839C46.5206 107.866 55.1492 99.4834 64.5935 94.265C65.3965 93.8184 66.2122 93.3846 67.0534 93.0146C68.0475 92.5808 67.1808 91.1135 66.1867 91.5473Z" fill="#72A265"/>
<path d="M98.8278 157.882C96.5719 155.738 94.5199 153.314 92.6463 150.813C89.2815 146.296 86.0952 141.014 85.5726 135.298C85.4706 134.214 83.7755 134.201 83.8775 135.298C84.4255 141.257 87.5227 146.718 91.0149 151.438C93.0159 154.143 95.1954 156.772 97.6297 159.094C98.42 159.847 99.618 158.634 98.8278 157.882Z" fill="#72A265"/>
<path d="M54.767 121.046C55.7484 119.362 57.2524 117.857 58.8456 116.67C62.6437 113.85 67.2957 113.046 71.8713 114.067C72.942 114.297 73.388 112.664 72.3174 112.421C68.2771 111.528 64.1221 111.834 60.4005 113.697C58.0299 114.896 55.9269 116.657 54.2955 118.75C53.9386 119.209 53.569 119.681 53.2758 120.191C52.7533 121.136 54.219 121.991 54.767 121.046Z" fill="#72A265"/>
<path d="M70.622 105.761C72.2789 105.621 73.9358 105.327 75.5544 104.97C78.4986 104.332 81.532 103.401 84.0683 101.742C85.4321 100.849 86.6684 99.7259 87.4331 98.2714C87.9429 97.3017 86.4772 96.4341 85.9674 97.4165C84.7056 99.8407 81.9909 101.168 79.5437 102.074C77.1476 102.954 74.6368 103.515 72.1132 103.885C71.6543 103.949 71.1828 104.013 70.6347 104.064C69.5386 104.153 69.5386 105.863 70.622 105.761Z" fill="#72A265"/>
<path d="M82.5138 110.099C83.253 111.286 84.1452 112.409 85.0628 113.455C86.8599 115.483 89.0012 117.372 91.4993 118.469C93.0414 119.145 94.6729 119.541 96.368 119.477C97.4641 119.439 97.4641 117.729 96.368 117.78C91.4993 117.984 87.3825 114.003 84.7315 110.354C84.4638 109.997 84.2089 109.627 83.9795 109.244C83.4059 108.313 81.9402 109.168 82.5138 110.099Z" fill="#72A265"/>
<path d="M34.846 99.037C36.4265 105.57 36.8088 112.434 36.6049 119.145C36.4902 122.833 36.248 126.596 35.5598 130.233H37.2804C38.8863 121.416 38.7206 112.026 37.3824 103.222C36.0314 94.3544 31.1626 85.8313 31.7617 76.7214C32.2077 69.9336 35.9931 64.0006 40.2756 58.948C40.9766 58.1187 39.7785 56.9066 39.0775 57.7487C35.2666 62.2271 31.8381 67.2924 30.5636 73.1233C29.6332 77.3976 30.0155 81.7357 31.0479 85.9589C32.144 90.3736 33.7882 94.6223 34.846 99.037Z" fill="#72A265"/>
<path d="M123.847 180.248C123.579 174.864 121.769 169.735 119.398 164.937C117.104 160.293 114.237 155.955 111.84 151.362C110.821 149.422 109.878 147.458 109.495 145.289C109.1 143.056 109.177 140.734 109.355 138.488C110.247 127.362 113.994 116.504 112.898 105.238C111.917 95.1582 106.258 85.742 98.4196 79.4391C89.9057 72.6002 78.8554 69.9591 68.366 73.4678C59.6736 76.3769 53.2754 82.4757 49.2861 90.6415C43.6654 102.125 42.0977 117.257 42.6968 129.927C42.6968 130.029 42.7095 130.131 42.7095 130.233H44.4174C43.7292 119.732 44.9909 107.279 48.343 97.3783C50.9303 89.7484 55.2892 82.3354 62.3374 78.0866C72.2916 72.0771 84.3869 72.2047 94.1626 78.4566C102.728 83.9303 109.432 93.3592 110.987 103.503C112.669 114.514 109.164 125.474 107.877 136.319C107.405 140.338 107.125 144.702 108.654 148.542C110.388 152.918 113.064 156.912 115.371 160.995C117.984 165.588 120.38 170.36 121.527 175.553C122.687 180.848 122.215 186.13 120.533 191.247C117.448 200.637 112.605 209.39 109.062 218.615C105.238 228.554 102.358 239.335 103.938 250.053C104.321 252.681 104.996 255.246 105.927 257.734C106.309 258.755 107.953 258.308 107.571 257.287C99.4137 235.533 113.689 214.213 121.157 194.551C122.891 189.945 124.102 185.199 123.847 180.248Z" fill="#72A265"/>
<path d="M93.3728 168.676C92.162 164.031 89.5492 160.025 87.2678 155.878C85.2795 152.268 85.1138 148.07 85.1138 144.012C85.1011 139.139 85.5089 134.265 85.9932 129.429C86.7325 121.952 88.3384 113.301 82.4373 107.33C75.6312 100.44 64.5173 104.472 58.9985 110.89C55.0092 115.534 51.0581 123.802 49.312 130.233H51.0964C52.5621 125.269 55.4425 119.005 57.8642 115.254C60.0946 111.809 63.0388 108.619 66.8497 106.935C71.1449 105.046 76.6381 104.651 80.449 107.802C86.6687 112.944 85.0756 121.659 84.3746 128.676C83.9157 133.155 83.5206 137.646 83.4314 142.15C83.3549 146.003 83.3422 150.124 84.502 153.837C85.8275 158.098 88.9502 161.709 90.6453 165.856C93.2199 172.133 92.71 178.5 89.7276 184.561C89.2433 185.543 90.709 186.398 91.1933 185.416C93.7679 180.146 94.864 174.43 93.3728 168.676Z" fill="#72A265"/>
</svg>
