<svg width="30" height="30" viewBox="0 0 30 30" fill="none" xmlns="http://www.w3.org/2000/svg">
<path d="M23.3174 21.9937L26.9793 25.6537C27.1501 25.8305 27.2446 26.0673 27.2424 26.3131C27.2403 26.5589 27.1417 26.794 26.9679 26.9679C26.794 27.1417 26.5589 27.2403 26.3131 27.2424C26.0673 27.2446 25.8305 27.1501 25.6537 26.9793L21.9918 23.3174C19.5988 25.3676 16.5048 26.4113 13.3589 26.2294C10.2131 26.0476 7.2599 24.6544 5.11913 22.3421C2.97835 20.0298 1.81637 16.9782 1.87702 13.8277C1.93766 10.6772 3.21622 7.67257 5.44439 5.44439C7.67257 3.21622 10.6772 1.93766 13.8277 1.87702C16.9782 1.81637 20.0298 2.97835 22.3421 5.11913C24.6544 7.2599 26.0476 10.2131 26.2294 13.3589C26.4113 16.5048 25.3676 19.5988 23.3174 21.9918V21.9937ZM14.0624 24.3749C16.7975 24.3749 19.4205 23.2884 21.3544 21.3544C23.2884 19.4205 24.3749 16.7975 24.3749 14.0624C24.3749 11.3274 23.2884 8.70434 21.3544 6.77037C19.4205 4.8364 16.7975 3.74991 14.0624 3.74991C11.3274 3.74991 8.70434 4.8364 6.77037 6.77037C4.8364 8.70434 3.74991 11.3274 3.74991 14.0624C3.74991 16.7975 4.8364 19.4205 6.77037 21.3544C8.70434 23.2884 11.3274 24.3749 14.0624 24.3749Z" fill="#A5A5A5"/>
</svg>
