<svg width="23" height="23" viewBox="0 0 23 23" fill="none" xmlns="http://www.w3.org/2000/svg">
<path d="M11.0234 19.2097C11.0234 19.2097 2.42969 14.3972 2.42969 8.55347C2.42969 7.52041 2.78761 6.51925 3.44256 5.72034C4.09752 4.92142 5.00904 4.3741 6.02204 4.1715C7.03505 3.9689 8.08696 4.12353 8.99881 4.60909C9.91065 5.09464 10.6261 5.88112 11.0234 6.83472C11.4208 5.88112 12.1362 5.09464 13.0481 4.60909C13.9599 4.12353 15.0118 3.9689 16.0248 4.1715C17.0378 4.3741 17.9494 4.92142 18.6043 5.72034C19.2593 6.51925 19.6172 7.52041 19.6172 8.55347C19.6172 14.3972 11.0234 19.2097 11.0234 19.2097Z" stroke="black" stroke-width="1.2" stroke-linecap="round" stroke-linejoin="round"/>
</svg>
