<svg width="30" height="23" viewBox="0 0 30 23" fill="none" xmlns="http://www.w3.org/2000/svg">
<path d="M5.48074 16.1538H12.9807C13.4423 16.1538 13.8461 15.75 13.8461 15.2885V1.73077C13.8461 0.75 12.8077 0 12 0H5.48074C5.0192 0 4.61536 0.403846 4.61536 0.865385V14.4231V15.2885C4.61536 15.75 5.0192 16.1538 5.48074 16.1538Z" fill="#0FA862"/>
<path d="M28.3846 2.65381C28.0385 2.53843 27.6923 2.82689 27.6923 3.23073V17.5961C27.6923 18.0577 27.2885 18.4615 26.8269 18.4615H3.17308C2.71154 18.4615 2.30769 18.0577 2.30769 17.5961V3.28843C2.30769 2.88458 1.84615 2.59612 1.5 2.7692C0.634615 3.17304 0 4.09612 0 5.19227V18.4615C0 19.7307 1.03846 20.7692 2.30769 20.7692H11.8269C12.2885 20.7692 12.6923 21.173 12.6923 21.6346C12.6923 22.0961 13.0962 22.5 13.5577 22.5H16.4423C16.9038 22.5 17.3077 22.0961 17.3077 21.6346C17.3077 21.173 17.7115 20.7692 18.1731 20.7692H27.6923C28.9615 20.7692 30 19.7307 30 18.4615V5.19227C30 3.98073 29.5962 2.94227 28.3846 2.65381Z" fill="#0FA862"/>
<path d="M17.0192 16.1538H24.5192C24.9807 16.1538 25.3846 15.75 25.3846 15.2885V14.4231V0.865385C25.3846 0.403846 24.9807 0 24.5192 0H18C17.1346 0 16.1538 0.75 16.1538 1.73077V15.2885C16.1538 15.75 16.5577 16.1538 17.0192 16.1538Z" fill="#0FA862"/>
</svg>
