<svg width="229" height="130" viewBox="0 0 229 130" fill="none" xmlns="http://www.w3.org/2000/svg">
<g clip-path="url(#clip0_1_1060)">
<path d="M103.51 129.076C103.217 125.732 104.876 122.285 107.668 120.425C110.464 118.564 114.28 118.363 117.255 119.922C117.978 117.99 118.716 116.023 119.998 114.406C121.28 112.789 123.209 111.549 125.271 111.625V129.076H103.51Z" fill="#EBEBEB"/>
<path d="M46.2206 61.5593L35.1004 83.9862L38.4216 84.1118L28.9981 101.935H33.9476L26.2285 117.769H69.378L59.8746 101.935L64.4285 101.738L55.3245 83.9254L58.6876 83.7275L46.2206 61.5593Z" fill="#EBEBEB"/>
<path d="M48.0996 87.5773C48.1529 87.5773 48.0578 97.0768 47.8866 108.791C47.7154 120.508 47.5328 130.004 47.4757 130C47.4225 130 47.5176 120.504 47.6888 108.787C47.86 97.073 48.0426 87.5735 48.0996 87.5773Z" fill="#E0E0E0"/>
<path d="M53.3885 92.805C53.4113 92.8202 53.1374 93.2197 52.6656 93.8398C52.1939 94.4637 51.5243 95.3045 50.7711 96.2252C50.033 97.1192 49.3634 97.9295 48.8308 98.5725C48.3324 99.1698 48.0205 99.5388 47.9977 99.5198C47.9748 99.5046 48.2487 99.1051 48.7205 98.485C49.1922 97.8611 49.8618 97.0203 50.6151 96.0996C51.3531 95.2056 52.0227 94.3991 52.5553 93.7523C53.0537 93.155 53.3657 92.786 53.3885 92.805Z" fill="#E0E0E0"/>
<path d="M47.9924 99.5233C47.9581 99.5652 46.8663 98.7739 45.5576 97.7505C44.245 96.7271 43.2102 95.8635 43.2445 95.8217C43.2787 95.7798 44.3706 96.5711 45.6793 97.5945C46.9918 98.6141 48.0266 99.4777 47.9924 99.5233Z" fill="#E0E0E0"/>
<path d="M47.7009 110.526C47.6819 110.545 47.3776 110.293 46.8906 109.879C46.4036 109.464 45.7303 108.893 44.9732 108.277C44.2161 107.661 43.5199 107.117 43.0177 106.725C42.5155 106.333 42.2036 106.086 42.2188 106.063C42.234 106.04 42.5726 106.249 43.1014 106.615C43.6264 106.98 44.3416 107.509 45.0987 108.129C45.8558 108.749 46.5178 109.339 46.9819 109.78C47.446 110.214 47.7161 110.506 47.7009 110.526Z" fill="#E0E0E0"/>
<path d="M53.8478 103.723C53.8592 103.731 53.7869 103.838 53.65 104.028C53.513 104.214 53.3038 104.477 53.0337 104.796C52.5011 105.435 51.7211 106.28 50.8461 107.193C49.9711 108.106 49.176 108.932 48.6206 109.544C48.0613 110.153 47.7265 110.541 47.6999 110.526C47.6885 110.518 47.7608 110.412 47.8977 110.221C48.0347 110.035 48.2439 109.772 48.514 109.453C49.0467 108.814 49.8266 107.969 50.7016 107.056C51.5766 106.143 52.3679 105.317 52.9271 104.705C53.4864 104.092 53.825 103.704 53.8478 103.723Z" fill="#E0E0E0"/>
<path d="M136.725 87.079H181.807L190.23 75.118L199.06 87.4176L209.435 87.2502L198.254 72.1886L147.986 72.3978L136.725 87.079Z" fill="#E0E0E0"/>
<path d="M159.268 87.25V129.178H204.286V87.25H199.127L190.228 75.1178L181.779 87.0674L159.268 87.25Z" fill="#F5F5F5"/>
<path d="M176.162 111.001H165.631V129.178H176.162V111.001Z" fill="#E0E0E0"/>
<path d="M199.059 110.487H182.472V120.762H199.059V110.487Z" fill="#E0E0E0"/>
<path d="M187.451 110.487H187.071V120.858H187.451V110.487Z" fill="#EBEBEB"/>
<path d="M194.349 110.487H193.968V120.858H194.349V110.487Z" fill="#EBEBEB"/>
<path d="M194.159 115.798H187.261V116.179H194.159V115.798Z" fill="#EBEBEB"/>
<path d="M199.059 89.9242H182.472V100.2H199.059V89.9242Z" fill="#E0E0E0"/>
<path d="M187.451 89.9242H187.071V100.295H187.451V89.9242Z" fill="#EBEBEB"/>
<path d="M194.349 89.9242H193.968V100.295H194.349V89.9242Z" fill="#EBEBEB"/>
<path d="M194.159 95.2318H187.261V95.6123H194.159V95.2318Z" fill="#EBEBEB"/>
<path d="M175.06 90.0156H164.598V99.9223H175.06V90.0156Z" fill="#E0E0E0"/>
<path d="M159.273 87.2499H141V129.174H159.273V87.2499Z" fill="#E0E0E0"/>
<path d="M170.02 90.0156H169.64V99.9223H170.02V90.0156Z" fill="#EBEBEB"/>
<path d="M175.06 95.0226H164.598V95.403H175.06V95.0226Z" fill="#EBEBEB"/>
<path d="M190.207 85.34C191.432 85.34 192.425 84.347 192.425 83.122C192.425 81.8971 191.432 80.9041 190.207 80.9041C188.983 80.9041 187.99 81.8971 187.99 83.122C187.99 84.347 188.983 85.34 190.207 85.34Z" fill="#E0E0E0"/>
<path d="M174.381 80.4018L177.181 76.9475V68.6425H171.319V80.4665L174.381 80.4018Z" fill="#F5F5F5"/>
<path d="M174.384 80.4018V68.6425H177.184V76.9475L174.384 80.4018Z" fill="#EBEBEB"/>
<path d="M177.574 67.4218H170.665V68.643H177.574V67.4218Z" fill="#EBEBEB"/>
<path d="M159.269 105.591H125.273V129.178H159.269V105.591Z" fill="#F5F5F5"/>
<path d="M146.558 105.591H125.273V129.178H146.558V105.591Z" fill="#E0E0E0"/>
<path d="M143.39 113.196H129.469V129.136H143.39V113.196Z" fill="#F5F5F5"/>
<path d="M157.397 113.132H148.43V115.414H157.397V113.132Z" fill="#EBEBEB"/>
<path d="M136.725 87.0786V88.2922H181.781V87.0671L136.725 87.0786Z" fill="#EBEBEB"/>
<path d="M181.781 88.2924L190.207 76.4646L190.23 75.1178L181.807 87.0788L181.781 88.2924Z" fill="#EBEBEB"/>
<path d="M209.216 87.2499H199.126V88.0336H209.216V87.2499Z" fill="#EBEBEB"/>
<path d="M172.569 108.216H168.844V109.631H172.569V108.216Z" fill="#E0E0E0"/>
<path d="M228.393 129.178C228.393 129.232 177.262 129.277 114.2 129.277C51.1197 129.277 0 129.232 0 129.178C0 129.125 51.1197 129.08 114.2 129.08C177.262 129.08 228.393 129.125 228.393 129.178Z" fill="#263238"/>
<path d="M140.038 18.8276C131.612 7.2394 119.361 1.83336 106.575 1.83716C106.575 1.83716 75.2684 1.83716 65.9971 29.8641C62.5807 40.1931 63.3378 51.4084 67.4846 61.4673C68.9189 64.9445 70.8249 68.7184 73.332 72.344C81.4163 84.0197 106.575 115.904 106.575 115.904H112.045C119.068 106.15 136.747 73.7478 142.043 63.3618C148.693 50.3166 149.713 32.1354 140.038 18.8276ZM111.798 70.6701C97.0295 70.6701 85.0571 58.6977 85.0571 43.9252C85.0571 29.1565 97.0295 17.1841 111.798 17.1841C126.567 17.1841 138.539 29.1565 138.539 43.9252C138.539 58.6977 126.567 70.6701 111.798 70.6701Z" fill="#018636"/>
<path opacity="0.4" d="M140.038 18.8276C131.612 7.2394 119.361 1.83336 106.575 1.83716C106.575 1.83716 75.2684 1.83716 65.9971 29.8641C62.5807 40.1931 63.3378 51.4084 67.4846 61.4673C68.9189 64.9445 70.8249 68.7184 73.332 72.344C81.4163 84.0197 106.575 115.904 106.575 115.904H112.045C119.068 106.15 136.747 73.7478 142.043 63.3618C148.693 50.3166 149.713 32.1354 140.038 18.8276ZM111.798 70.6701C97.0295 70.6701 85.0571 58.6977 85.0571 43.9252C85.0571 29.1565 97.0295 17.1841 111.798 17.1841C126.567 17.1841 138.539 29.1565 138.539 43.9252C138.539 58.6977 126.567 70.6701 111.798 70.6701Z" fill="black"/>
<path d="M145.542 19.0441C137.116 7.45595 124.866 2.05371 112.083 2.05371C112.083 2.05371 80.7765 2.05371 71.5051 30.0807C68.0888 40.4096 68.8459 51.625 72.9927 61.6838C74.4269 65.161 76.3329 68.935 78.84 72.5606C86.9244 84.2363 112.083 116.121 112.083 116.121C112.083 116.121 141.152 76.1291 147.551 63.5784C154.197 50.5331 155.221 32.3557 145.542 19.0441ZM111.832 70.8904C96.9946 70.9247 85.0336 59.074 85.0906 44.1455C85.1439 29.3769 97.0631 17.4044 111.832 17.4044C126.6 17.4044 138.584 29.3769 138.573 44.1455C138.565 58.9637 126.566 70.86 111.832 70.8904Z" fill="#018636"/>
<path d="M111.799 17.1846C100.166 17.1846 90.2704 24.6184 86.5916 34.9929C90.1905 27.0532 98.1797 21.5292 107.462 21.5292C120.116 21.5292 130.376 31.7858 130.376 44.4431C130.376 57.0965 120.12 67.3569 107.462 67.3569C100.116 67.3569 93.5802 63.8949 89.3878 58.5155C94.1585 65.8314 102.41 70.6744 111.799 70.6744C126.568 70.6744 138.541 58.7019 138.541 43.9295C138.541 29.1608 126.568 17.1846 111.799 17.1846Z" fill="#018636"/>
<path opacity="0.4" d="M111.799 17.1846C100.166 17.1846 90.2704 24.6184 86.5916 34.9929C90.1905 27.0532 98.1797 21.5292 107.462 21.5292C120.116 21.5292 130.376 31.7858 130.376 44.4431C130.376 57.0965 120.12 67.3569 107.462 67.3569C100.116 67.3569 93.5802 63.8949 89.3878 58.5155C94.1585 65.8314 102.41 70.6744 111.799 70.6744C126.568 70.6744 138.541 58.7019 138.541 43.9295C138.541 29.1608 126.568 17.1846 111.799 17.1846Z" fill="black"/>
<path d="M165.125 56.1908C164.049 55.4566 162.744 55.137 161.446 55.2816C159.255 55.5327 156.078 55.8522 156.078 55.8522L156.09 55.955L140.747 56.8984L136.052 47.3646L128.93 52.0554C128.93 52.0554 129.866 53.5544 133.857 60.9273C135.451 63.8719 138.719 65.5116 142.033 65.0284L160.1 62.3844V62.3501C161.964 62.2436 163.988 62.0686 164.281 61.8023C164.84 61.2887 165.35 59.4246 165.35 59.4246C165.35 59.4246 168.568 61.3382 169.188 61.3838C169.812 61.4257 169.923 60.9083 170.307 60.3604C170.577 59.9914 167.259 57.6441 165.125 56.1908Z" fill="#FFBE9D"/>
<path d="M136.995 46.7485C136.995 46.7485 134.012 41.0076 131.281 35.5864C127.925 28.9287 120.522 27.5971 120.522 27.5971L109.801 26.1895C109.801 26.1895 100.842 22.134 92.4911 32.1967L85.6279 39.8511L87.085 41.1598L93.8797 47.2697L95.2226 48.4757L98.2966 45.3104L96.8661 53.3301L94.3438 64.5074C94.3476 64.5112 94.3476 64.5112 94.3514 64.515L99.8031 63.8568L103.493 41.3158L124.277 42.9745L122.645 57.1877C122.979 57.1383 125.494 56.6399 126.312 53.2236C126.632 51.8806 126.533 50.7431 126.331 49.9099L127.533 52.9877L136.995 46.7485Z" fill="#455A64"/>
<path d="M103.492 41.3009L99.8013 63.8419L94.3496 64.5001C99.0328 68.5366 105.127 70.9828 111.797 70.9828C115.129 70.9828 118.317 70.3703 121.258 69.2556L122.643 57.169L124.275 42.9558L103.492 41.3009Z" fill="#263238"/>
<path d="M104.724 25.0713L104.272 43.3818L107.741 43.9296L108.205 25.3756C108.205 25.3756 106.988 24.8011 104.724 25.0713Z" fill="#263238"/>
<path d="M119.391 43.4811L122.248 27.7537C122.412 27.5787 124.759 28.4195 125.463 29.2222L122.899 43.812L119.391 43.4811Z" fill="#263238"/>
<path d="M107.867 41.2363C107.882 41.2363 107.901 41.3467 107.92 41.5483C107.935 41.7499 107.962 42.0467 107.931 42.4157C107.901 42.7809 107.802 43.2374 107.502 43.6445C107.353 43.8461 107.152 44.0364 106.897 44.1543C106.642 44.2722 106.337 44.3141 106.048 44.257C105.462 44.1429 105.006 43.7586 104.747 43.3326C104.488 42.9027 104.397 42.4537 104.363 42.0885C104.329 41.7195 104.348 41.4227 104.367 41.2211C104.386 41.0195 104.409 40.9053 104.42 40.9091C104.458 40.9091 104.412 41.3657 104.504 42.0733C104.553 42.4233 104.656 42.8456 104.903 43.2374C105.147 43.6179 105.573 43.9641 106.086 44.063C106.604 44.1695 107.094 43.9032 107.361 43.5342C107.642 43.169 107.753 42.7505 107.798 42.4005C107.871 41.6929 107.829 41.2363 107.867 41.2363Z" fill="#455A64"/>
<path d="M105.811 42.853C105.404 42.6894 105.206 42.229 105.37 41.8258C105.533 41.4187 105.994 41.2209 106.397 41.3845C106.804 41.5481 107.002 42.0084 106.838 42.4117C106.678 42.8187 106.218 43.0165 105.811 42.853Z" fill="#455A64"/>
<path d="M122.08 42.9521C122.08 43.3896 121.726 43.7434 121.288 43.7434C120.851 43.7434 120.497 43.3896 120.497 42.9521C120.497 42.5146 120.851 42.1608 121.288 42.1608C121.722 42.1608 122.08 42.5146 122.08 42.9521Z" fill="#455A64"/>
<path d="M123.138 42.4045C123.157 42.4083 123.13 42.7659 122.955 43.3289C122.86 43.6067 122.712 43.9414 122.426 44.2268C122.153 44.5197 121.696 44.7214 121.224 44.6681C120.756 44.6224 120.345 44.3866 120.083 44.0784C119.82 43.7703 119.695 43.4241 119.638 43.1311C119.581 42.8382 119.596 42.5947 119.619 42.4349C119.642 42.2713 119.676 42.1876 119.687 42.1876C119.725 42.1914 119.645 42.5528 119.775 43.1007C119.843 43.3708 119.973 43.6866 120.22 43.9567C120.46 44.223 120.832 44.4284 121.243 44.4703C121.658 44.5121 122.042 44.3523 122.301 44.0936C122.563 43.8425 122.719 43.5382 122.826 43.2757C123.031 42.7507 123.107 42.3969 123.138 42.4045Z" fill="#455A64"/>
<path d="M105.763 49.9258C105.737 49.922 105.725 49.7736 105.733 49.5339C105.737 49.416 105.744 49.2714 105.752 49.1155C105.759 49.0318 105.763 48.9481 105.771 48.8682L105.782 48.7388L105.79 48.6703L105.794 48.6361V48.6209V48.6133V48.6095V48.6057C105.695 48.6932 105.927 48.4839 105.904 48.5068C106.634 48.5866 107.224 48.6932 107.216 48.7464C107.209 48.7997 106.615 48.7807 105.881 48.7008C105.858 48.7236 106.09 48.5144 105.991 48.6019V48.6057V48.6095V48.6171V48.6361L105.988 48.6703L105.98 48.7388L105.965 48.872C105.953 48.9557 105.946 49.0356 105.934 49.1231C105.912 49.2829 105.893 49.4274 105.87 49.5454C105.832 49.7812 105.79 49.9258 105.763 49.9258Z" fill="#455A64"/>
<path d="M105.206 55.1679C105.153 55.1603 105.172 54.5706 105.248 53.8478C105.324 53.1249 105.43 52.5428 105.487 52.5466C105.541 52.5543 105.522 53.1439 105.445 53.8668C105.366 54.5934 105.259 55.1755 105.206 55.1679Z" fill="#455A64"/>
<path d="M105.978 59.707C105.955 59.7565 105.4 59.532 104.742 59.2048C104.753 59.2277 104.639 59.0184 104.689 59.1059V59.1021V59.0983V59.0907V59.0755L104.692 59.0412L104.7 58.9728L104.715 58.8396C104.727 58.7597 104.738 58.676 104.749 58.5923C104.772 58.4363 104.795 58.2918 104.814 58.1738C104.856 57.938 104.898 57.7896 104.924 57.7934C104.951 57.7972 104.959 57.9456 104.951 58.1891C104.947 58.3108 104.94 58.4516 104.928 58.6113C104.921 58.695 104.913 58.7787 104.909 58.8586L104.898 58.9918L104.89 59.0603L104.886 59.0945V59.1097V59.1173V59.1211V59.1249C104.936 59.2124 104.822 59.0032 104.833 59.026C105.487 59.3532 106.001 59.6576 105.978 59.707Z" fill="#455A64"/>
<path d="M109.497 61.453C109.474 61.5024 109.06 61.3465 108.573 61.1068C108.086 60.8671 107.713 60.6312 107.74 60.5818C107.762 60.5323 108.177 60.6883 108.664 60.928C109.147 61.1677 109.52 61.4035 109.497 61.453Z" fill="#455A64"/>
<path d="M113.677 62.4162C113.696 62.4656 113.164 62.7319 112.479 63.0096C112.315 63.002 112.433 63.0096 112.399 63.0058H112.395L112.391 63.002L112.384 62.9982L112.368 62.9906L112.338 62.9754L112.277 62.945L112.159 62.8841C112.087 62.8461 112.015 62.808 111.939 62.7662C111.798 62.6901 111.672 62.6216 111.57 62.5607C111.36 62.439 111.239 62.3477 111.25 62.3249C111.261 62.302 111.406 62.3439 111.63 62.4352C111.741 62.4808 111.874 62.5379 112.019 62.6026C112.095 62.6406 112.171 62.6749 112.247 62.7091L112.365 62.7662L112.426 62.7966L112.456 62.8118L112.471 62.8194L112.479 62.8232L112.483 62.827H112.486C112.452 62.827 112.566 62.8308 112.407 62.8232C113.088 62.5493 113.654 62.3667 113.677 62.4162Z" fill="#455A64"/>
<path d="M116.522 61.2666C116.541 61.316 116.241 61.4872 115.849 61.647C115.457 61.8068 115.122 61.8943 115.099 61.8448C115.08 61.7954 115.381 61.6242 115.773 61.4644C116.164 61.3008 116.499 61.2133 116.522 61.2666Z" fill="#455A64"/>
<path d="M119.313 58.8621C119.366 58.8659 119.351 59.467 119.275 60.1974C119.153 60.361 119.24 60.2431 119.214 60.2811H119.21H119.206L119.199 60.2849L119.183 60.2925L119.153 60.3039L119.088 60.3306L118.967 60.38C118.89 60.4105 118.814 60.4371 118.734 60.4675C118.586 60.5246 118.449 60.5703 118.335 60.6083C118.107 60.6806 117.958 60.7148 117.947 60.6882C117.936 60.6616 118.065 60.5855 118.282 60.4751C118.388 60.4219 118.521 60.361 118.666 60.2963C118.746 60.2621 118.818 60.2279 118.894 60.1974L119.016 60.148L119.077 60.1213L119.107 60.1099L119.123 60.1023L119.13 60.0985H119.134H119.138C119.111 60.1366 119.199 60.0186 119.077 60.1784C119.153 59.448 119.256 58.8583 119.313 58.8621Z" fill="#455A64"/>
<path d="M119.82 53.9348C119.873 53.9386 119.861 54.4978 119.789 55.1788C119.721 55.8598 119.618 56.4076 119.565 56.4C119.511 56.3962 119.523 55.837 119.595 55.156C119.667 54.475 119.766 53.9272 119.82 53.9348Z" fill="#455A64"/>
<path d="M118.886 50.0012C118.894 49.948 119.491 49.967 120.222 50.0469C120.397 50.2637 120.271 50.1077 120.309 50.1572V50.161V50.1648V50.1724V50.1876L120.306 50.2219L120.298 50.2904L120.283 50.4235C120.271 50.5034 120.264 50.5871 120.252 50.6708C120.229 50.8306 120.21 50.9713 120.188 51.0893C120.146 51.329 120.104 51.4735 120.077 51.4697C120.051 51.4659 120.039 51.3175 120.047 51.0741C120.051 50.9523 120.058 50.8116 120.07 50.6518C120.077 50.5681 120.085 50.4844 120.089 50.4007L120.1 50.2675L120.108 50.1991L120.112 50.1648V50.1496V50.142V50.1382V50.1344C120.15 50.1838 120.024 50.024 120.199 50.2409C119.469 50.1648 118.883 50.0545 118.886 50.0012Z" fill="#455A64"/>
<path d="M114.221 49.5C114.229 49.4467 114.754 49.4582 115.4 49.5266C116.043 49.5951 116.561 49.6978 116.557 49.7511C116.549 49.8044 116.024 49.7929 115.377 49.7245C114.735 49.6522 114.217 49.5533 114.221 49.5Z" fill="#455A64"/>
<path d="M109.551 48.9938C109.558 48.9405 110.083 48.9519 110.726 49.0204C111.369 49.0889 111.887 49.1916 111.883 49.2449C111.875 49.2981 111.35 49.2867 110.704 49.2182C110.064 49.1498 109.547 49.0508 109.551 48.9938Z" fill="#455A64"/>
<path d="M85.0928 42.5485C85.07 43.005 85.0586 43.4653 85.0586 43.9295C85.0586 45.7708 85.245 47.5703 85.5988 49.3089C85.6026 49.3279 85.6064 49.3431 85.6102 49.3621C85.6559 49.5828 85.7091 49.7996 85.7624 50.0203C85.9716 50.8801 86.2151 51.7285 86.489 52.5616C86.5233 52.6644 86.5575 52.7709 86.5956 52.8736C87.5771 52.6529 90.4266 50.1915 93.7022 47.1099L86.9151 41.0077C85.9602 41.955 85.401 42.4419 85.0928 42.5485Z" fill="#FFBE9D"/>
<path d="M127.937 3.03564C128.173 5.66448 131.171 7.87864 133.807 7.79875C135.26 7.75309 136.733 7.10635 138.133 7.50961C140.476 8.1868 141.424 11.4586 143.824 11.8961C145.62 12.2233 147.279 10.77 149.097 10.6711C150.436 10.5988 151.699 11.2684 152.806 12.0216C153.913 12.7749 154.979 13.6461 156.246 14.076C157.516 14.5059 158.68 13.7412 159.962 13.3532C160.282 14.1711 160.487 15.1717 160.894 16.0391C161.305 16.9027 161.796 18.4472 161.073 18.782C161.073 18.782 159.053 19.8282 157.885 19.7712C158.813 20.7299 160.282 21.1293 161.568 20.7679C161.891 22.7234 162.135 24.9756 160.815 26.4517C160.225 27.1061 159.396 27.5055 158.54 27.7262C154.298 28.8218 149.869 25.8582 145.567 26.6685C143.801 26.9995 142.184 27.9544 140.4 28.1865C138.646 28.4148 136.805 27.8974 135.432 26.7827C133.735 25.4093 132.567 23.1114 130.414 22.7538C129.459 22.594 128.489 22.868 127.557 23.1305C126.624 23.393 125.647 23.6441 124.699 23.4462C123.752 23.2446 122.858 22.4381 122.904 21.4717" fill="#263238"/>
<path d="M119.506 28.5699C119.982 25.9182 120.53 23.1372 120.53 23.1372C120.53 23.1372 124.045 23.1714 125.54 18.8382C126.963 14.7067 127.994 4.76577 127.994 4.76577C123.429 1.89346 117.368 2.20161 113.172 5.52285L109.668 27.1128C109.261 29.6199 111.091 31.9672 113.781 32.3819C116.489 32.8004 119.054 31.0922 119.506 28.5699Z" fill="#FFBE9D"/>
<path d="M125.375 12.2111C125.333 12.5154 125.04 12.7285 124.721 12.6904C124.405 12.6524 124.181 12.3746 124.223 12.0703C124.264 11.7659 124.557 11.5529 124.873 11.5909C125.196 11.629 125.417 11.9067 125.375 12.2111Z" fill="#263238"/>
<path d="M126.414 11.7362C126.33 11.7971 125.953 11.4014 125.337 11.2949C124.725 11.1807 124.215 11.4166 124.162 11.3291C124.135 11.2911 124.23 11.1693 124.451 11.059C124.668 10.9487 125.025 10.8688 125.406 10.9373C125.79 11.0057 126.087 11.2036 126.246 11.3824C126.418 11.5612 126.456 11.7096 126.414 11.7362Z" fill="#263238"/>
<path d="M119.062 11.2107C119.02 11.515 118.727 11.7281 118.407 11.69C118.092 11.652 117.867 11.3743 117.909 11.0699C117.951 10.7656 118.244 10.5525 118.56 10.5906C118.879 10.6286 119.104 10.9063 119.062 11.2107Z" fill="#263238"/>
<path d="M119.964 10.8257C119.88 10.8866 119.504 10.4909 118.887 10.3844C118.275 10.2703 117.765 10.5062 117.712 10.4187C117.685 10.3806 117.78 10.2589 118.001 10.1485C118.218 10.042 118.575 9.95832 118.956 10.0268C119.34 10.0953 119.637 10.2931 119.797 10.4719C119.964 10.6545 120.006 10.7991 119.964 10.8257Z" fill="#263238"/>
<path d="M121.385 15.784C121.389 15.7498 121.781 15.7498 122.416 15.7802C122.576 15.7916 122.732 15.7878 122.774 15.6851C122.831 15.5786 122.796 15.396 122.751 15.202C122.671 14.7949 122.587 14.3688 122.496 13.9237C122.15 12.109 121.929 10.6253 122.005 10.6101C122.077 10.5986 122.416 12.0595 122.762 13.8742C122.842 14.3231 122.922 14.7492 122.994 15.1563C123.021 15.3465 123.089 15.5672 122.968 15.7878C122.903 15.8982 122.774 15.9628 122.667 15.9704C122.561 15.9819 122.473 15.9704 122.393 15.959C121.765 15.8829 121.381 15.8183 121.385 15.784Z" fill="#263238"/>
<path d="M120.529 23.1377C120.529 23.1377 117.497 22.8029 114.842 20.4937C114.842 20.4937 115.751 23.8111 120.286 24.1801L120.529 23.1377Z" fill="#EB996E"/>
<path d="M120.868 17.2175C120.697 16.8866 120.34 16.6583 119.948 16.6317C119.678 16.6126 119.385 16.6963 119.183 16.8828C118.981 17.073 118.894 17.3735 119.004 17.6056C119.13 17.8681 119.468 17.9822 119.776 17.9518C120.085 17.9214 120.37 17.773 120.644 17.6208C120.72 17.579 120.796 17.5371 120.853 17.4686C120.906 17.404 120.933 17.3089 120.891 17.2404" fill="#EB996E"/>
<path d="M119.499 15.8896C119.602 15.901 119.484 16.5706 119.971 17.1451C120.458 17.7196 121.18 17.7728 121.173 17.8641C121.177 17.906 120.99 17.9668 120.69 17.9212C120.393 17.8793 119.978 17.7081 119.681 17.3581C119.385 17.0043 119.301 16.5934 119.328 16.3157C119.35 16.0304 119.453 15.8782 119.499 15.8896Z" fill="#263238"/>
<path d="M116.186 2.33554C117.376 4.96437 121.238 8.16007 124.217 9.29378C123.947 8.75355 122.269 7.22799 121.999 6.68396C123.201 7.99267 124.939 9.76552 126.777 10.2068C126.994 10.2601 127.234 10.3019 127.435 10.2259C127.709 10.1231 127.816 9.84161 127.892 9.58671C128.215 8.52148 128.493 6.64211 128.519 5.53123C128.55 4.42034 128.257 3.2524 127.454 2.35456C126.438 1.21324 124.78 0.665406 123.186 0.326815C121.847 0.0414853 120.447 -0.141126 119.126 0.113769C117.806 0.368663 116.574 1.12954 116.178 2.24803" fill="#263238"/>
<path d="M109.075 12.231C109.067 11.0364 109.094 9.91034 109.189 9.17609C109.49 6.85541 110.212 -1.57893 118 0.593376L117.171 2.75427C117.171 2.75427 117.768 8.18315 113.773 11.0973C113.773 11.0973 113.792 16.5148 111.023 18.4702C111.023 18.4702 109.094 14.7952 109.075 12.231Z" fill="#263238"/>
<path d="M113.94 10.7281C113.48 10.5531 112.974 10.477 112.491 10.5683C112.008 10.6596 111.547 10.9259 111.273 11.3368C110.999 11.7477 110.927 12.2727 111.011 12.7596C111.095 13.2466 111.327 13.6993 111.612 14.1026C111.817 14.3917 112.061 14.6656 112.377 14.8292C112.692 14.9928 113.092 15.0308 113.396 14.852" fill="#FFBE9D"/>
<path d="M113.167 13.5707C113.221 13.5973 112.962 13.8484 112.547 13.6544C112.346 13.5631 112.175 13.3424 112.091 13.0875C112.007 12.8327 111.973 12.5587 111.992 12.2544C112.015 11.95 112.136 11.6457 112.342 11.4517C112.54 11.25 112.817 11.1587 113.034 11.193C113.483 11.2614 113.567 11.5962 113.517 11.5962C113.476 11.6267 113.331 11.4364 113.023 11.4555C112.734 11.4593 112.388 11.7979 112.365 12.2886C112.331 12.787 112.441 13.2702 112.681 13.4299C112.924 13.6164 113.145 13.525 113.167 13.5707Z" fill="#EB996E"/>
<path d="M159.015 11.0936C159.015 11.0936 158.969 11.2191 158.805 11.4056C158.642 11.5882 158.338 11.8202 157.877 11.9382C157.424 12.0599 156.816 12.0675 156.192 11.8202C155.56 11.5844 154.94 11.1354 154.29 10.6257C153.635 10.1311 152.905 9.54521 151.969 9.34358C151.505 9.25608 151.003 9.26749 150.512 9.40825C150.021 9.5414 149.534 9.76206 149.047 10.0055C148.56 10.249 148.066 10.5229 147.537 10.7626C147.008 10.9985 146.434 11.2001 145.817 11.2229C145.201 11.2496 144.569 11.0632 144.044 10.7055C143.516 10.3517 143.097 9.86097 142.713 9.35499C141.952 8.33922 141.336 7.24355 140.407 6.52071C139.951 6.1593 139.407 5.93864 138.851 5.86636C138.296 5.78647 137.741 5.84353 137.204 5.93864C136.135 6.13647 135.138 6.47506 134.157 6.5968C133.175 6.71474 132.243 6.61202 131.444 6.36093C129.827 5.87397 128.762 4.94189 128.165 4.24188C127.568 3.52285 127.374 3.03589 127.374 3.03589C127.377 3.03589 127.396 3.05872 127.431 3.11198C127.469 3.17285 127.518 3.25274 127.579 3.34404C127.708 3.54948 127.918 3.84242 128.222 4.18862C128.831 4.8658 129.896 5.76364 131.486 6.22397C132.27 6.45985 133.183 6.55115 134.138 6.42941C135.096 6.30386 136.086 5.96147 137.174 5.75223C137.718 5.64951 138.292 5.59244 138.878 5.67233C139.464 5.74462 140.042 5.98049 140.525 6.35713C141.503 7.1142 142.119 8.22508 142.873 9.22564C143.249 9.72402 143.656 10.1958 144.155 10.5305C144.649 10.8653 145.235 11.0403 145.81 11.0175C146.388 10.9985 146.943 10.8083 147.461 10.58C147.982 10.3479 148.473 10.0778 148.963 9.83434C149.454 9.59086 149.953 9.3664 150.466 9.23325C150.976 9.09249 151.512 9.08107 152.003 9.17618C152.992 9.40064 153.727 10.0093 154.377 10.5115C155.024 11.0251 155.629 11.474 156.234 11.7137C156.835 11.9648 157.421 11.9648 157.862 11.8621C158.311 11.7594 158.608 11.5425 158.779 11.3751C158.942 11.2039 159.003 11.0898 159.015 11.0936Z" fill="#263238"/>
<path d="M71.3914 86.6683L64.4902 100.589L66.5484 100.665L60.701 111.728H63.775L58.9814 121.555H85.7606L79.8676 111.728L82.6904 111.602L77.0409 100.547L79.1295 100.425L71.3914 86.6683Z" fill="#455A64"/>
<path d="M72.5525 102.814C72.6058 102.814 72.5639 108.711 72.4574 115.981C72.3509 123.251 72.2215 129.144 72.1644 129.144C72.1112 129.144 72.153 123.251 72.2596 115.977C72.3699 108.707 72.4992 102.814 72.5525 102.814Z" fill="#263238"/>
<path d="M75.8391 106.394C75.8581 106.409 75.7098 106.648 75.4244 107.006C75.1391 107.364 74.713 107.824 74.2223 108.311C73.7315 108.798 73.294 109.239 72.9858 109.57C72.6777 109.897 72.4913 110.107 72.4684 110.091C72.4494 110.076 72.5978 109.837 72.8831 109.479C73.1684 109.121 73.5945 108.661 74.0853 108.174C74.5761 107.687 75.0136 107.246 75.3217 106.919C75.6299 106.584 75.8163 106.375 75.8391 106.394Z" fill="#263238"/>
<path d="M72.4916 110.229C72.4574 110.271 71.7688 109.792 70.9546 109.16C70.1405 108.525 69.509 107.977 69.5394 107.931C69.5736 107.889 70.2584 108.369 71.0764 109.004C71.8943 109.636 72.5258 110.187 72.4916 110.229Z" fill="#263238"/>
<path d="M72.3077 117.057C72.2697 117.099 71.5278 116.453 70.5919 115.692C69.6561 114.927 68.8724 114.334 68.9066 114.288C68.937 114.246 69.774 114.771 70.7175 115.54C71.661 116.304 72.3458 117.019 72.3077 117.057Z" fill="#263238"/>
<path d="M76.1247 112.838C76.1741 112.877 75.3904 113.892 74.2871 115.018C73.7735 115.555 73.3094 116.042 72.8985 116.472C72.5447 116.844 72.3317 117.08 72.3089 117.061C72.2594 117.023 73.0431 116.008 74.1464 114.881C74.66 114.345 75.1241 113.858 75.535 113.432C75.885 113.055 76.1018 112.819 76.1247 112.838Z" fill="#263238"/>
</g>
<defs>
<clipPath id="clip0_1_1060">
<rect width="228.393" height="130" fill="white"/>
</clipPath>
</defs>
</svg>
