<svg width="14" height="14" viewBox="0 0 14 14" fill="none" xmlns="http://www.w3.org/2000/svg">
<path d="M12.8879 4.39607L2.30667 0.733571C2.12886 0.671081 1.93701 0.66011 1.75324 0.701922C1.56947 0.743735 1.40126 0.836629 1.26799 0.969895C1.13472 1.10316 1.04183 1.27138 1.00002 1.45515C0.958206 1.63892 0.969177 1.83076 1.03167 2.00857L4.69417 12.5898C4.76012 12.7875 4.88693 12.9593 5.05645 13.0805C5.22597 13.2018 5.4295 13.2663 5.63792 13.2648H5.65667C5.86763 13.2653 6.07304 13.1973 6.24208 13.0711C6.41112 12.9449 6.53467 12.7672 6.59417 12.5648L8.06917 7.77732L12.8567 6.29607C13.0592 6.23591 13.2371 6.11238 13.3642 5.94364C13.4913 5.77489 13.561 5.56983 13.5629 5.35857C13.5674 5.1472 13.5044 4.9399 13.383 4.7668C13.2616 4.59371 13.0882 4.46384 12.8879 4.39607Z" fill="#0F6435"/>
</svg>
