<svg width="23" height="23" viewBox="0 0 23 23" fill="none" xmlns="http://www.w3.org/2000/svg">
<path d="M11.0234 12.4329C12.5422 12.4329 13.7734 11.2016 13.7734 9.68286C13.7734 8.16408 12.5422 6.93286 11.0234 6.93286C9.50465 6.93286 8.27344 8.16408 8.27344 9.68286C8.27344 11.2016 9.50465 12.4329 11.0234 12.4329Z" stroke="black" stroke-linecap="round" stroke-linejoin="round"/>
<path d="M17.8984 9.68286C17.8984 15.8704 11.0234 20.6829 11.0234 20.6829C11.0234 20.6829 4.14844 15.8704 4.14844 9.68286C4.14844 7.8595 4.87277 6.11081 6.16208 4.8215C7.45139 3.53219 9.20007 2.80786 11.0234 2.80786C12.8468 2.80786 14.5955 3.53219 15.8848 4.8215C17.1741 6.11081 17.8984 7.8595 17.8984 9.68286V9.68286Z" stroke="black" stroke-linecap="round" stroke-linejoin="round"/>
</svg>
