<svg width="21" height="27" viewBox="0 0 21 27" fill="none" xmlns="http://www.w3.org/2000/svg">
<path d="M20.0392 16.6535L18.7059 14.4402C18.4259 13.9469 18.1725 13.0135 18.1725 12.4669V9.09355C18.1709 7.60559 17.7481 6.1485 16.9529 4.89084C16.1577 3.63319 15.0227 2.62637 13.6792 1.98688C13.3363 1.378 12.8361 0.872404 12.231 0.522927C11.6259 0.17345 10.938 -0.00707712 10.2392 0.000212324C8.78586 0.000212324 7.47919 0.786879 6.78586 2.02688C4.18586 3.32021 2.38586 6.00021 2.38586 9.09355V12.4669C2.38586 13.0135 2.13253 13.9469 1.85253 14.4269L0.505861 16.6535C-0.0274719 17.5469 -0.147472 18.5335 0.185861 19.4402C0.505861 20.3335 1.26586 21.0269 2.25253 21.3602C4.83919 22.2402 7.5592 22.6669 10.2792 22.6669C12.9992 22.6669 15.7192 22.2402 18.3059 21.3735C19.2392 21.0669 19.9592 20.3602 20.3059 19.4402C20.6525 18.5202 20.5592 17.5069 20.0392 16.6535ZM14.0259 24.0135C13.7455 24.7897 13.2329 25.4608 12.5578 25.9355C11.8827 26.4102 11.0778 26.6656 10.2525 26.6669C9.19919 26.6669 8.15919 26.2402 7.42586 25.4802C6.9992 25.0802 6.67919 24.5469 6.49253 24.0002C6.66586 24.0269 6.83919 24.0402 7.02586 24.0669C7.33253 24.1069 7.65253 24.1469 7.97253 24.1735C8.73253 24.2402 9.50586 24.2802 10.2792 24.2802C11.0392 24.2802 11.7992 24.2402 12.5459 24.1735C12.8259 24.1469 13.1059 24.1335 13.3725 24.0935L14.0259 24.0135Z" fill="#0FA862"/>
</svg>
