<svg width="208" height="71" viewBox="0 0 208 71" fill="none" xmlns="http://www.w3.org/2000/svg">
<g clip-path="url(#clip0_46_129212)">
<path d="M31.0351 15.0693C30.7544 14.734 30.3461 14.1945 29.967 13.4691C28.7277 11.096 28.8771 8.89435 29.0229 8.05595C29.238 6.80565 29.4749 6.21513 29.7629 5.84332C30.0582 5.45693 30.3753 5.22728 30.8018 4.93931C32.5588 3.76191 33.6997 3.2443 33.6997 3.2443C35.577 2.38768 37.1554 1.66957 39.4956 1.05718C42.204 0.346366 44.3911 0.178687 45.3716 0.127654C46.5636 0.065686 49.3996 -0.0108631 52.9464 0.729111C53.4931 0.842113 55.9755 1.37796 59.0448 2.69752C60.3643 3.26617 62.2781 4.10092 64.5126 5.67564C64.9427 5.98184 66.7872 7.29775 68.8321 9.47758C70.8115 11.5809 72.1164 13.5711 72.9074 14.9199C73.498 15.9259 74.464 17.7121 75.3133 20.0851C75.6632 21.0657 76.2537 22.7497 76.6256 25.0608C76.9208 26.898 76.9427 28.3014 76.9536 29.435C76.9718 30.9551 76.9828 32.9381 76.5162 35.4496C75.9585 38.4496 75.018 40.6075 74.4931 41.7922C74.1213 42.6306 73.1626 44.6938 71.4858 47.096C70.7969 48.0802 69.583 49.8044 67.6037 51.6889C67.1225 52.1482 65.1833 53.9599 62.1359 55.7351C57.4081 58.4872 53.2125 59.2892 52.2939 59.4532C50.9816 59.6901 48.1639 60.0984 44.5843 59.7813C42.9622 59.6355 38.8796 59.1397 34.1955 56.8833C31.2101 55.4471 29.2854 53.9526 28.7824 53.548C27.9804 52.9064 26.741 51.8894 25.7204 50.6501C25.0752 49.8627 24.2915 49.181 23.7374 48.3244C23.701 48.2661 23.577 48.0729 23.3474 47.8943C22.9974 47.6245 22.622 47.5589 22.385 47.5261C21.1967 47.3548 20.5005 47.4022 20.5005 47.4022C18.8747 47.5188 18.0618 47.5772 17.5479 47.6902C15.3389 48.1786 15.1493 49.1191 12.9841 49.8846C12.3097 50.1215 10.8188 50.6318 9.04727 50.4313C6.47741 50.1397 4.7751 48.5067 3.5248 47.3147C1.23562 45.1276 -0.145911 42.4046 0.134769 42.175C0.24777 42.0838 0.52116 42.4739 1.28301 42.7764C2.59163 43.2941 3.87839 42.9806 4.45433 42.8311C5.40572 42.5832 5.5734 42.3135 6.86015 41.6829C7.72042 41.2637 8.94156 40.6659 10.4689 40.3706C11.2964 40.2102 13.1481 39.8785 15.1165 40.5893C15.3899 40.6877 15.9367 40.9648 17.0303 41.5188C17.9124 41.9672 18.4264 42.2515 18.944 42.7764C19.1955 43.0316 19.3778 43.2685 19.4908 43.4326C18.6633 43.3597 17.8067 43.305 16.9209 43.2685C14.9197 43.1883 13.3194 43.1191 11.6171 43.3232C10.3267 43.4763 8.4531 43.8481 6.25141 44.8396C6.71799 44.8032 7.40693 44.7485 8.24168 44.6756C11.6937 44.373 11.9087 44.271 12.9768 44.2454C15.2405 44.1871 16.9938 44.5772 17.8759 44.7776C19.5928 45.1713 20.9926 45.7181 22.0169 46.192C21.5394 45.5286 20.927 44.599 20.3364 43.4253C20.0485 42.8566 19.6767 42.051 19.1663 40.6148C18.9039 39.8785 18.1129 37.6476 17.6682 35.3876C16.622 30.0584 17.5916 25.028 17.7921 24.0474C18.7544 19.3087 20.6244 15.9697 21.4409 14.6173C22.9792 12.073 24.6524 10.192 25.95 8.91622C25.7824 9.36458 25.5709 9.97697 25.3777 10.7206C24.6779 13.367 24.7253 15.5359 24.7617 16.3378C24.8237 17.6902 24.9585 20.096 26.238 22.6951C27.1566 24.5578 27.5029 24.1714 29.4786 27.1641C30.6195 28.8955 31.7824 30.689 32.5952 33.2734C32.7082 33.6306 33.1858 35.1944 33.4154 37.3342C33.6888 39.8822 33.4555 41.8834 33.3316 42.7473C32.9452 45.452 32.0995 47.6464 31.3231 49.2248C30.9112 48.9915 30.3753 48.6598 29.7848 48.2114C29.5916 48.0656 28.9282 47.5516 28.0205 46.6112C27.029 45.5832 26.3838 44.7084 25.9099 44.0595C25.4434 43.418 24.6888 42.3755 23.9415 40.9976C22.4361 38.2127 21.882 35.7558 21.5904 34.4107C21.3389 33.2515 21.0801 31.6987 20.9889 29.8469C20.8176 30.5978 20.6317 31.7424 20.7155 33.1276C20.7593 33.8457 20.8613 34.4216 21.153 35.723C21.6487 37.9466 21.8929 39.0583 22.1663 39.904C23.012 42.5577 24.1894 44.4314 25.0643 45.8092C25.8954 47.1179 26.8978 48.6707 28.6183 50.373C30.8893 52.6221 33.0764 53.8068 34.2246 54.4192C35.2161 54.9477 37.5272 56.096 40.7313 56.825C43.8297 57.5285 46.3158 57.514 47.3729 57.4812C50.5879 57.3754 52.9646 56.6901 53.5259 56.5261C58.9755 54.9004 62.3765 51.5832 63.9148 50.0486C64.7714 49.1956 66.6742 47.1944 68.3983 44.1981C69.0618 43.0462 69.8127 41.7193 70.3959 39.7947C71.0593 37.593 71.1359 35.8141 71.1906 34.2977C71.2307 33.1203 71.289 31.2139 70.8078 28.7752C70.3157 26.2819 69.5138 24.5031 69.029 23.446C68.4931 22.2795 67.5818 20.5152 66.131 18.5796C64.56 16.4836 62.9998 15.0547 62.0557 14.2601C61.272 13.5967 59.9743 12.514 58.0351 11.4715C57.4008 11.1289 55.21 9.99155 52.0752 9.3099C48.7362 8.58815 46.0278 8.75583 44.8285 8.87248C43.6183 8.98912 40.5527 9.3828 37.0096 11.0596C34.3376 12.3281 32.3619 13.8591 31.0351 15.0693Z" fill="white"/>
</g>
<path d="M83.0311 40.9121H78.4335V57.5649H83.0311V40.9121ZM87.9184 45.7994L90.0543 41.8172C89.7164 41.3827 89.2699 41.0569 88.7148 40.8397C88.1838 40.6225 87.6167 40.5139 87.0133 40.5139C86.1445 40.5139 85.2998 40.8276 84.4792 41.4551C83.6586 42.0585 82.9949 42.8791 82.4881 43.9169C81.9813 44.9305 81.7279 46.101 81.7279 47.4284L83.0311 48.7317C83.0311 47.9353 83.1277 47.2595 83.3207 46.7044C83.5379 46.1252 83.8517 45.6787 84.262 45.3649C84.6723 45.0512 85.167 44.8943 85.7463 44.8943C86.2289 44.8943 86.6272 44.9788 86.9409 45.1477C87.2788 45.2925 87.6046 45.5097 87.9184 45.7994ZM91.2127 58.7234C91.3093 60.1715 91.6954 61.4506 92.3712 62.5608C93.0711 63.6951 94.0727 64.564 95.3759 65.1673C96.6792 65.7948 98.2962 66.1086 100.227 66.1086C101.82 66.1086 103.292 65.7948 104.644 65.1673C105.995 64.564 107.069 63.5986 107.866 62.2712C108.686 60.9438 109.096 59.2544 109.096 57.2029V40.9121H104.571V57.2029C104.571 58.3372 104.354 59.2785 103.92 60.0267C103.509 60.7748 102.954 61.3299 102.254 61.6919C101.579 62.054 100.854 62.235 100.082 62.235C99.2375 62.235 98.5014 62.0902 97.8739 61.8006C97.2464 61.5109 96.7516 61.1007 96.3896 60.5697C96.0276 60.0629 95.8345 59.4474 95.8104 58.7234H91.2127ZM90.8869 49.0937C90.8869 50.9279 91.261 52.4846 92.0092 53.7638C92.7573 55.0187 93.7469 55.9721 94.9777 56.6237C96.2086 57.2753 97.5118 57.6011 98.8875 57.6011C100.287 57.6011 101.518 57.2753 102.58 56.6237C103.666 55.9479 104.511 54.9705 105.114 53.6913C105.742 52.4122 106.055 50.8797 106.055 49.0937C106.055 47.2836 105.742 45.7511 105.114 44.4961C104.511 43.217 103.666 42.2395 102.58 41.5637C101.518 40.888 100.287 40.5501 98.8875 40.5501C97.5118 40.5501 96.2086 40.8759 94.9777 41.5275C93.7469 42.1792 92.7573 43.1446 92.0092 44.4237C91.261 45.6787 90.8869 47.2354 90.8869 49.0937ZM95.7379 49.0937C95.7379 48.0801 95.9431 47.2354 96.3534 46.5596C96.7637 45.8597 97.3188 45.3287 98.0187 44.9667C98.7186 44.6047 99.4667 44.4237 100.263 44.4237C100.794 44.4237 101.313 44.5323 101.82 44.7495C102.327 44.9426 102.785 45.2322 103.196 45.6183C103.63 46.0045 103.968 46.4872 104.209 47.0664C104.451 47.6456 104.571 48.3214 104.571 49.0937C104.571 50.1074 104.354 50.9641 103.92 51.664C103.509 52.3398 102.966 52.8587 102.29 53.2207C101.639 53.5586 100.963 53.7276 100.263 53.7276C99.4667 53.7276 98.7186 53.5465 98.0187 53.1845C97.3188 52.8225 96.7637 52.3036 96.3534 51.6278C95.9431 50.9279 95.7379 50.0832 95.7379 49.0937ZM116.976 52.3881C116.976 51.9054 117.085 51.5072 117.302 51.1934C117.519 50.8555 117.857 50.6021 118.315 50.4332C118.774 50.2401 119.365 50.1436 120.089 50.1436C120.982 50.1436 121.827 50.2642 122.623 50.5056C123.444 50.7469 124.18 51.109 124.832 51.5916V49.4195C124.59 49.1299 124.192 48.8282 123.637 48.5145C123.082 48.2007 122.394 47.9353 121.574 47.7181C120.777 47.5008 119.848 47.3922 118.786 47.3922C116.71 47.3922 115.106 47.8629 113.971 48.8041C112.837 49.7454 112.27 51.0245 112.27 52.6415C112.27 53.7758 112.535 54.7412 113.066 55.5376C113.621 56.3099 114.345 56.9012 115.238 57.3115C116.131 57.7218 117.097 57.927 118.134 57.927C119.148 57.927 120.113 57.746 121.031 57.3839C121.972 57.0219 122.732 56.4789 123.311 55.7549C123.915 55.0308 124.216 54.1378 124.216 53.0759L123.637 50.9038C123.637 51.7003 123.456 52.3881 123.094 52.9673C122.732 53.5224 122.261 53.9568 121.682 54.2706C121.103 54.5602 120.451 54.705 119.727 54.705C119.22 54.705 118.75 54.6205 118.315 54.4516C117.905 54.2585 117.579 53.993 117.338 53.6551C117.097 53.2931 116.976 52.8708 116.976 52.3881ZM115.166 45.6183C115.407 45.4494 115.781 45.2443 116.288 45.0029C116.795 44.7616 117.398 44.5564 118.098 44.3875C118.798 44.2185 119.534 44.1341 120.307 44.1341C120.813 44.1341 121.272 44.1823 121.682 44.2789C122.092 44.3754 122.442 44.5323 122.732 44.7495C123.046 44.9667 123.275 45.2443 123.42 45.5821C123.565 45.8959 123.637 46.282 123.637 46.7406V57.5649H128.162V45.7632C128.162 44.6288 127.849 43.6755 127.221 42.9032C126.594 42.1068 125.725 41.5034 124.615 41.0931C123.504 40.6828 122.237 40.4777 120.813 40.4777C119.269 40.4777 117.869 40.6949 116.614 41.1293C115.359 41.5396 114.297 41.974 113.428 42.4326L115.166 45.6183ZM136.47 51.8089H149.865L149.249 47.7181H137.085L136.47 51.8089ZM143.095 40.4415L146.896 49.2385L146.824 50.5418L150.082 57.5649H155.947L143.095 30.7394L130.243 57.5649H136.072L139.402 50.3246L139.294 49.1661L143.095 40.4415ZM172.315 40.9121H167.427L162.178 54.0896L164.495 54.162L159.137 40.9121H153.924L160.839 55.8997L156.639 65.5293H161.454L172.315 40.9121ZM179.269 51.0486V40.9121H174.418V51.5554C174.418 53.5345 174.9 55.0912 175.866 56.2255C176.855 57.3598 178.34 57.927 180.319 57.927C181.501 57.927 182.503 57.6856 183.323 57.2029C184.144 56.6961 184.82 55.9721 185.351 55.0308V57.5649H190.021V40.9121H185.351V51.0486C185.351 51.7485 185.206 52.3519 184.916 52.8587C184.651 53.3655 184.265 53.7638 183.758 54.0534C183.275 54.3188 182.696 54.4516 182.02 54.4516C181.055 54.4516 180.355 54.162 179.92 53.5827C179.486 52.9794 179.269 52.1347 179.269 51.0486ZM199.237 40.9121H194.64V57.5649H199.237V40.9121ZM204.125 45.7994L206.261 41.8172C205.923 41.3827 205.476 41.0569 204.921 40.8397C204.39 40.6225 203.823 40.5139 203.22 40.5139C202.351 40.5139 201.506 40.8276 200.686 41.4551C199.865 42.0585 199.201 42.8791 198.694 43.9169C198.188 44.9305 197.934 46.101 197.934 47.4284L199.237 48.7317C199.237 47.9353 199.334 47.2595 199.527 46.7044C199.744 46.1252 200.058 45.6787 200.468 45.3649C200.879 45.0512 201.373 44.8943 201.953 44.8943C202.435 44.8943 202.834 44.9788 203.147 45.1477C203.485 45.2925 203.811 45.5097 204.125 45.7994Z" fill="white"/>
<defs>
<clipPath id="clip0_46_129212">
<rect width="77.0448" height="59.989" fill="white"/>
</clipPath>
</defs>
</svg>
