<svg width="23" height="22" viewBox="0 0 23 22" fill="none" xmlns="http://www.w3.org/2000/svg">
<path d="M19.2734 15.2367V6.76327C19.2728 6.64087 19.2399 6.52081 19.178 6.4152C19.1161 6.30958 19.0275 6.22215 18.9211 6.1617L11.3586 1.9078C11.2567 1.84897 11.1411 1.81799 11.0234 1.81799C10.9058 1.81799 10.7902 1.84897 10.6883 1.9078L3.12578 6.1617C3.01935 6.22215 2.93073 6.30958 2.86887 6.4152C2.80701 6.52081 2.77409 6.64087 2.77344 6.76327V15.2367C2.77409 15.3591 2.80701 15.4792 2.86887 15.5848C2.93073 15.6904 3.01935 15.7778 3.12578 15.8383L10.6883 20.0922C10.7902 20.151 10.9058 20.182 11.0234 20.182C11.1411 20.182 11.2567 20.151 11.3586 20.0922L18.9211 15.8383C19.0275 15.7778 19.1161 15.6904 19.178 15.5848C19.2399 15.4792 19.2728 15.3591 19.2734 15.2367V15.2367Z" stroke="black" stroke-linecap="round" stroke-linejoin="round"/>
<path d="M15.2344 13.1055V8.63672L6.89844 4.03906" stroke="black" stroke-linecap="round" stroke-linejoin="round"/>
<path d="M19.1789 6.41089L11.1007 11L2.86792 6.41089" stroke="black" stroke-linecap="round" stroke-linejoin="round"/>
<path d="M11.1008 11L11.0234 20.1781" stroke="black" stroke-linecap="round" stroke-linejoin="round"/>
</svg>
