<svg width="22" height="22" viewBox="0 0 22 22" fill="none" xmlns="http://www.w3.org/2000/svg">
<path d="M4.125 11.9967V17.8748C4.125 18.0572 4.19743 18.232 4.32636 18.361C4.4553 18.4899 4.63016 18.5623 4.8125 18.5623H17.1875C17.3698 18.5623 17.5447 18.4899 17.6736 18.361C17.8026 18.232 17.875 18.0572 17.875 17.8748V11.9967" stroke="black" stroke-linecap="round" stroke-linejoin="round"/>
<path d="M4.64062 3.4375H17.3594C17.5085 3.43873 17.6533 3.48783 17.7725 3.57756C17.8916 3.6673 17.9787 3.79293 18.0211 3.93594L19.25 8.25H2.75L3.97891 3.93594C4.02125 3.79293 4.10841 3.6673 4.22754 3.57756C4.34668 3.48783 4.49148 3.43873 4.64062 3.4375Z" stroke="black" stroke-linecap="round" stroke-linejoin="round"/>
<path d="M8.25 8.25V9.625C8.25 10.3543 7.96027 11.0538 7.44454 11.5695C6.92882 12.0853 6.22935 12.375 5.5 12.375C4.77065 12.375 4.07118 12.0853 3.55546 11.5695C3.03973 11.0538 2.75 10.3543 2.75 9.625V8.25" stroke="black" stroke-linecap="round" stroke-linejoin="round"/>
<path d="M13.75 8.25V9.625C13.75 10.3543 13.4603 11.0538 12.9445 11.5695C12.4288 12.0853 11.7293 12.375 11 12.375C10.2707 12.375 9.57118 12.0853 9.05546 11.5695C8.53973 11.0538 8.25 10.3543 8.25 9.625V8.25" stroke="black" stroke-linecap="round" stroke-linejoin="round"/>
<path d="M19.25 8.25V9.625C19.25 10.3543 18.9603 11.0538 18.4445 11.5695C17.9288 12.0853 17.2293 12.375 16.5 12.375C15.7707 12.375 15.0712 12.0853 14.5555 11.5695C14.0397 11.0538 13.75 10.3543 13.75 9.625V8.25" stroke="black" stroke-linecap="round" stroke-linejoin="round"/>
</svg>
