<svg width="22" height="23" viewBox="0 0 22 23" fill="none" xmlns="http://www.w3.org/2000/svg">
<path d="M3.4375 5.95093V16.9509C3.4375 17.3156 3.58237 17.6653 3.84023 17.9232C4.09809 18.1811 4.44783 18.3259 4.8125 18.3259H18.5625C18.7448 18.3259 18.9197 18.2535 19.0486 18.1246C19.1776 17.9956 19.25 17.8208 19.25 17.6384V8.01343C19.25 7.83109 19.1776 7.65622 19.0486 7.52729C18.9197 7.39836 18.7448 7.32593 18.5625 7.32593H4.8125C4.44783 7.32593 4.09809 7.18106 3.84023 6.9232C3.58237 6.66534 3.4375 6.3156 3.4375 5.95093ZM3.4375 5.95093C3.4375 5.58626 3.58237 5.23652 3.84023 4.97866C4.09809 4.72079 4.44783 4.57593 4.8125 4.57593H16.5" stroke="black" stroke-linecap="round" stroke-linejoin="round"/>
<path d="M15.4688 13.8572C16.0383 13.8572 16.5 13.3955 16.5 12.8259C16.5 12.2564 16.0383 11.7947 15.4688 11.7947C14.8992 11.7947 14.4375 12.2564 14.4375 12.8259C14.4375 13.3955 14.8992 13.8572 15.4688 13.8572Z" fill="black"/>
</svg>
